<svg xmlns="http://www.w3.org/2000/svg" width="1500" height="880" viewBox="0 0 1500 880">
  <title>LEAD-93 搜索和筛选查询流程</title>
  <desc>先执行现有页签基础查询并选定 email_code 和 result_version，再进行元数据过滤、去重、分页和顺序还原。</desc>
  <defs>
    <marker id="a" markerWidth="10" markerHeight="10" refX="9" refY="3" orient="auto"><path d="M0 0L0 6L9 3z" fill="#475569"/></marker>
    <style>
      .title{font:700 28px Arial,"Microsoft YaHei",sans-serif;fill:#172033}.sub{font:400 15px Arial,"Microsoft YaHei",sans-serif;fill:#526070}.section{font:700 18px Arial,"Microsoft YaHei",sans-serif;fill:#172033}.h{font:700 15px Arial,"Microsoft YaHei",sans-serif;fill:#172033}.body{font:400 13px Arial,"Microsoft YaHei",sans-serif;fill:#526070}.small{font:400 12px Arial,"Microsoft YaHei",sans-serif;fill:#526070}.code{font:700 12px Arial,"Microsoft YaHei",sans-serif;fill:#334155}.event{font:700 12px Arial,"Microsoft YaHei",sans-serif;fill:#334155}
      .panel{fill:#fff;stroke:#cbd5e1;stroke-width:1.5;rx:6}.input{fill:#f8fafc;stroke:#94a3b8;stroke-width:1.5;rx:6}.base{fill:#fff7db;stroke:#d69e2e;stroke-width:1.5;rx:6}.filter{fill:#e0f2fe;stroke:#0284c7;stroke-width:1.5;rx:6}.result{fill:#dcfce7;stroke:#16a34a;stroke-width:1.5;rx:6}.pending{fill:#fff1f2;stroke:#e11d48;stroke-width:1.3;rx:6}.rule{fill:#eff6ff;stroke:#60a5fa;stroke-width:1.2;rx:5}.line{stroke:#475569;stroke-width:1.7;fill:none;marker-end:url(#a)}
    </style>
  </defs>
  <rect width="1500" height="880" fill="#f7f9fc"/>
  <text x="60" y="50" class="title">搜索 / 筛选：两阶段查询流程</text>
  <text x="60" y="78" class="sub">先按现有页签语义选定结果版本，再应用元数据条件；不能先多表关联后直接分页。</text>

  <rect x="60" y="110" width="1380" height="135" class="panel"/>
  <text x="86" y="145" class="section">请求条件</text>
  <rect x="100" y="170" width="240" height="50" class="input"/><text x="125" y="201" class="h">页签：已发布 / 草稿</text>
  <rect x="390" y="170" width="240" height="50" class="input"/><text x="415" y="201" class="h">is_campaign · 必传</text>
  <rect x="680" y="170" width="310" height="50" class="input"/><text x="705" y="201" class="h">关键词 + 分类 / 子分类</text>
  <rect x="1040" y="170" width="320" height="50" class="input"/><text x="1065" y="201" class="h">标签组 · 同组任一匹配</text>

  <rect x="60" y="275" width="1380" height="430" class="panel"/>
  <text x="86" y="310" class="section">查询流程</text>

  <rect x="90" y="355" width="300" height="175" class="base"/>
  <text x="115" y="388" class="h">步骤 1 · 页签基础查询</text>
  <text x="115" y="417" class="body">已发布：已启用 + 生效 + 未删除</text>
  <text x="115" y="443" class="body">草稿：保留三个现有“或者”分支</text>
  <text x="115" y="469" class="code">输出 email_code + result_version</text>
  <text x="115" y="496" class="small">不得把草稿页简化为 status=3</text>
  <text x="115" y="518" class="small">选版矩阵已确认；查询必须保持现有页签语义</text>

  <rect x="450" y="355" width="300" height="175" class="filter"/>
  <text x="475" y="388" class="h">步骤 2 · 元数据筛选</text>
  <text x="475" y="417" class="body">读取 result_version.category_id</text>
  <text x="475" y="443" class="body">检查子分类 / 标签关系是否存在</text>
  <text x="475" y="469" class="code">跨维度使用“并且”</text>
  <text x="475" y="495" class="code">同维度 / 同标签组使用“或者”</text>
  <text x="475" y="518" class="small">关键词：模板标题 / 描述 / 标签名称</text>

  <rect x="810" y="355" width="270" height="175" class="filter"/>
  <text x="835" y="388" class="h">步骤 3 · 范围与总数</text>
  <text x="835" y="417" class="body">按页签模板语义去重</text>
  <text x="835" y="443" class="body">稳定排序 + 分页</text>
  <text x="835" y="469" class="code">列表与总数条件必须一致</text>
  <text x="835" y="495" class="small">排序字段沿用现有页签规则</text>

  <rect x="1140" y="355" width="270" height="175" class="result"/>
  <text x="1165" y="388" class="h">步骤 4 · 加载详情</text>
  <text x="1165" y="417" class="body">按分页 email_code 加载详情</text>
  <text x="1165" y="443" class="body">使用 FIELD() 恢复顺序</text>
  <text x="1165" y="469" class="code">返回结果版本的元数据</text>
  <text x="1165" y="495" class="small">无匹配：[] + total=0</text>

  <path d="M390 442L450 442" class="line"/><path d="M750 442L810 442" class="line"/><path d="M1080 442L1140 442" class="line"/>

  <rect x="90" y="565" width="620" height="105" class="rule"/>
  <text x="115" y="598" class="h">为什么不能先关联多表再分页？</text>
  <text x="115" y="624" class="body">一个版本可有多个子分类和标签关系，多表关联会放大行数。</text>
  <text x="115" y="648" class="small">若直接分页，会出现重复模板、总数错误和跨页遗漏；应先确定结果范围。</text>
  <rect x="790" y="565" width="620" height="105" class="rule"/>
  <text x="815" y="598" class="h">已发布页 / 顾问页面边界</text>
  <text x="815" y="624" class="body">已发布页不开放状态筛选；顾问页面强制只读已发布模板。</text>
  <text x="815" y="648" class="small">请求参数不得绕过生效 + 启用语义；is_campaign 非法时不执行查询。</text>

  <rect x="60" y="735" width="1380" height="70" class="pending"/>
  <text x="86" y="765" class="h">实施说明 · 本图只定义查询阶段和组合语义</text>
  <text x="86" y="790" class="small">已发布和草稿查询继续保留现有总数、租户、国家和排序条件；选版矩阵已确认。</text>
  <text x="60" y="845" class="small">数据库查询设计入口：QUERY_iic_msg_email_config.sql；本图只定义查询阶段和组合语义。</text>
</svg>
